<svg width="16" height="16" viewBox="0 0 16 16" fill="none" xmlns="http://www.w3.org/2000/svg">
<path d="M4.64689 1.64604C4.69334 1.59948 4.74851 1.56253 4.80926 1.53733C4.87001 1.51212 4.93513 1.49915 5.00089 1.49915C5.06666 1.49915 5.13178 1.51212 5.19253 1.53733C5.25327 1.56253 5.30845 1.59948 5.35489 1.64604L11.3549 7.64604C11.4015 7.69248 11.4384 7.74766 11.4636 7.80841C11.4888 7.86915 11.5018 7.93427 11.5018 8.00004C11.5018 8.06581 11.4888 8.13093 11.4636 8.19167C11.4384 8.25242 11.4015 8.30759 11.3549 8.35404L5.35489 14.354C5.26101 14.4479 5.13367 14.5007 5.00089 14.5007C4.86812 14.5007 4.74078 14.4479 4.64689 14.354C4.55301 14.2602 4.50026 14.1328 4.50026 14C4.50026 13.8673 4.55301 13.7399 4.64689 13.646L10.2939 8.00004L4.64689 2.35404C4.60033 2.30759 4.56339 2.25242 4.53818 2.19167C4.51297 2.13093 4.5 2.06581 4.5 2.00004C4.5 1.93427 4.51297 1.86915 4.53818 1.80841C4.56339 1.74766 4.60033 1.69249 4.64689 1.64604Z" fill="black"/>
</svg>
