<svg width="16" height="16" viewBox="0 0 16 16" fill="none" xmlns="http://www.w3.org/2000/svg">
<path d="M11.3549 1.64604C11.4015 1.69249 11.4384 1.74766 11.4636 1.80841C11.4888 1.86915 11.5018 1.93427 11.5018 2.00004C11.5018 2.06581 11.4888 2.13093 11.4636 2.19167C11.4384 2.25242 11.4015 2.30759 11.3549 2.35404L5.70789 8.00004L11.3549 13.646C11.4488 13.7399 11.5015 13.8673 11.5015 14C11.5015 14.1328 11.4488 14.2602 11.3549 14.354C11.261 14.4479 11.1337 14.5007 11.0009 14.5007C10.8681 14.5007 10.7408 14.4479 10.6469 14.354L4.64689 8.35404C4.60033 8.30759 4.56339 8.25242 4.53818 8.19167C4.51297 8.13093 4.5 8.06581 4.5 8.00004C4.5 7.93427 4.51297 7.86915 4.53818 7.80841C4.56339 7.74766 4.60033 7.69248 4.64689 7.64604L10.6469 1.64604C10.6933 1.59948 10.7485 1.56253 10.8093 1.53733C10.87 1.51212 10.9351 1.49915 11.0009 1.49915C11.0667 1.49915 11.1318 1.51212 11.1925 1.53733C11.2533 1.56253 11.3084 1.59948 11.3549 1.64604Z" fill="black"/>
</svg>
