<svg xmlns="http://www.w3.org/2000/svg" xmlns:xlink="http://www.w3.org/1999/xlink" viewBox="0 0 694.36 245.29"><defs><style>.cls-1,.cls-3{fill:none;}.cls-2{clip-path:url(#clip-path);}.cls-3{stroke:#fa7a7a;stroke-linecap:round;stroke-linejoin:round;stroke-width:6.32px;}.cls-4{fill:#8e8982;}.cls-5{fill:#010103;}</style><clipPath id="clip-path" transform="translate(0 0)"><rect class="cls-1" width="694.36" height="245.29"/></clipPath></defs><title>lAsset 1</title><g id="Layer_2" data-name="Layer 2"><g id="Layer_1-2" data-name="Layer 1"><g class="cls-2"><path class="cls-3" d="M584.4,73.31c-1.31-2.75-2.2-7.86-2.2-12.53A42.78,42.78,0,0,1,625,18,41.69,41.69,0,0,1,662.9,41.42" transform="translate(0 0)"/><path class="cls-3" d="M590.31,15.43A51.48,51.48,0,0,1,623.74,3.16c13.54,0,25.61,4.64,34.65,13" transform="translate(0 0)"/><path class="cls-3" d="M673.84,22.27c-10.36,33.26-57.8,61.9-101.2,49.44" transform="translate(0 0)"/><path class="cls-3" d="M603.41,23.64a68.45,68.45,0,0,0-21.76-11.1c-16.79-5-22.87,3.08-22.87,9.73C558.67,57.8,579.15,93.14,616,110a25.77,25.77,0,0,0,9,2.35" transform="translate(0 0)"/><path class="cls-3" d="M646.57,23.64a68.45,68.45,0,0,1,21.76-11.1c16.78-5,22.87,3.08,22.87,9.73C691.31,57.8,670.82,93.14,634,110a25.83,25.83,0,0,1-9,2.35" transform="translate(0 0)"/><path class="cls-3" d="M558.78,22.27c.49,13,24.22,41.06,70.82,44.76" transform="translate(0 0)"/><path class="cls-4" d="M.55,231.47a7.7,7.7,0,0,0,3.92,1.11c2.24,0,3.55-1.18,3.55-2.89s-.91-2.49-3.2-3.37c-2.76-1-4.47-2.41-4.47-4.8,0-2.64,2.19-4.6,5.48-4.6a7.76,7.76,0,0,1,3.74.83L9,219.54a6.73,6.73,0,0,0-3.22-.81c-2.31,0-3.19,1.39-3.19,2.54,0,1.58,1,2.36,3.37,3.27,2.87,1.1,4.32,2.49,4.32,5s-1.93,4.88-5.93,4.88A8.8,8.8,0,0,1,0,233.31Z" transform="translate(0 0)"/><path class="cls-4" d="M38.37,217.2h2.19v8.17h.08c.45-.66.9-1.26,1.33-1.81l5.17-6.36h2.72l-6.13,7.19,6.61,9.75H47.75l-5.58-8.32-1.61,1.86v6.46H38.37Z" transform="translate(0 0)"/><rect class="cls-4" x="77.12" y="217.2" width="2.19" height="16.94"/><path class="cls-4" d="M108.26,234.14V217.2h2.39l5.42,8.57a47.47,47.47,0,0,1,3,5.5l0,0c-.2-2.26-.25-4.32-.25-7V217.2H121v16.94h-2.21l-5.38-8.6a52.05,52.05,0,0,1-3.16-5.65l-.08,0c.13,2.13.18,4.17.18,7v7.24Z" transform="translate(0 0)"/><path class="cls-4" d="M192.22,233.59a11,11,0,0,1-4.48.8c-4.77,0-8.36-3-8.36-8.57,0-5.3,3.59-8.89,8.84-8.89a9.13,9.13,0,0,1,4,.75l-.53,1.78a8,8,0,0,0-3.41-.7c-4,0-6.61,2.54-6.61,7,0,4.14,2.38,6.81,6.5,6.81a8.68,8.68,0,0,0,3.57-.71Z" transform="translate(0 0)"/><path class="cls-4" d="M222.92,228.81l-1.75,5.33H218.9l5.76-16.94h2.64l5.78,16.94h-2.34l-1.81-5.33Zm5.56-1.71-1.66-4.87c-.38-1.11-.63-2.11-.88-3.09h-.05c-.25,1-.53,2-.86,3.06l-1.65,4.9Z" transform="translate(0 0)"/><path class="cls-4" d="M260.69,217.43a22.51,22.51,0,0,1,4.2-.35c2.34,0,3.84.42,4.9,1.38a4.22,4.22,0,0,1,1.33,3.21,4.45,4.45,0,0,1-3.19,4.33v.07c1.31.45,2.09,1.66,2.49,3.42a25.84,25.84,0,0,0,1.31,4.65h-2.27a22.94,22.94,0,0,1-1.13-4c-.5-2.34-1.4-3.21-3.39-3.29h-2.06v7.34h-2.19Zm2.19,7.71h2.24c2.33,0,3.82-1.28,3.82-3.21,0-2.19-1.59-3.15-3.9-3.17a9.05,9.05,0,0,0-2.16.2Z" transform="translate(0 0)"/><polygon class="cls-4" points="308.11 226.2 301.53 226.2 301.53 232.3 308.87 232.3 308.87 234.14 299.34 234.14 299.34 217.2 308.49 217.2 308.49 219.04 301.53 219.04 301.53 224.39 308.11 224.39 308.11 226.2"/><path class="cls-5" d="M417.1,160.41c-4.88,16.93-17.49,22.82-29.43,22.69-19.08-.21-26.8-14-31.46-31.09-1.78-6.5-5.78-7.9-14-8.81,0,0-.67-.08-.67-.67s.57-.65.67-.67c11.93-1.77,15.37-7.27,16.56-15.59,2.38-16.79,5.19-32.1,15.86-34,2.35-.42,6-.64,8.15.46,13.81,7.16,4.71,49.33-21.81,48.81a1,1,0,0,0-.94,1.06c0,.81.94,1,.94,1s52.37,7,52.37-26.12c0-8.71-7.94-25.27-32.78-26.11-2.38-.08-4.17-.09-6.28-.07-30.14.27-53.47,20.59-53.47,50.93,0,33.15,23.48,50.61,52.56,50.61,27.59,0,40.53-15.28,44.84-31.6,0,0,.33-.72-.15-1a.69.69,0,0,0-.93.19" transform="translate(0 0)"/><path class="cls-5" d="M0,70.9V190.05a.56.56,0,0,0,.56.56H83.71a.56.56,0,0,0,.56-.53l2.3-38.76a.56.56,0,0,0-1.1-.21c-3.58,11.06-14.29,37.46-35,37.46h-16a.56.56,0,0,1-.56-.56V63.71a.2.2,0,0,0-.31-.16C31.71,65,21.71,72.24.66,70.34A.57.57,0,0,0,0,70.9" transform="translate(0 0)"/><path class="cls-5" d="M310.54,169.33c-1.91,0-10.24.34-10.24,9.72,0,9.63,8.24,10.1,10.24,10.1s10.24-.47,10.24-10.1c0-9.38-8.33-9.72-10.24-9.72" transform="translate(0 0)"/><path class="cls-5" d="M146.74,91.77c-9.62,0-51.57,1.75-51.57,49,0,48.51,41.52,50.91,51.57,50.91s51.57-2.4,51.57-50.91c0-47.2-42-48.95-51.57-48.95m0,97.8c-3.56,0-18.24-2.3-18.24-48.81,0-45.25,14.84-46.93,18.24-46.93S165,95.51,165,140.76c0,46.51-14.68,48.81-18.23,48.81" transform="translate(0 0)"/><path class="cls-5" d="M276.46,189.42l-31.92,2.16a1.19,1.19,0,0,1-1.18-.75L209.59,105a1.18,1.18,0,0,1,1-1.61c4.78-.45,19.38-2.47,28.09-10.4a1.16,1.16,0,0,1,1.87.45l36.94,94.39a1.18,1.18,0,0,1-1,1.61" transform="translate(0 0)"/><path class="cls-5" d="M307.61,104.54a15.51,15.51,0,0,0-16.25-13.29A15.19,15.19,0,0,0,277,106.63c0,3.28.43,8.74,7.68,13.31,5.38,3.39,16.91,7.77,13.81,15.21,0,0-27.6,50.13-27.6,50.13l1.74,1.11s27.47-50.5,27.49-50.52,9.61-16.17,7.45-31.33" transform="translate(0 0)"/><path class="cls-5" d="M292.37,121.78a15.29,15.29,0,1,0,0-30.58c-8.83,0-15,6.85-15.29,15.29a15,15,0,0,0,15.29,15.29" transform="translate(0 0)"/><path class="cls-5" d="M199.38,109.78a.69.69,0,0,0,.4-.91c-1.5-8,6.3-12.76,8.78-6.36l13.31,33.69,30.82-11.76L238.32,87.71C233,74.06,218.83,77.5,214.81,79.32c-20.15,9.11-16.95,28.48-16.34,30.06a.74.74,0,0,0,.91.4" transform="translate(0 0)"/><path class="cls-5" d="M418.85,99.52a.66.66,0,0,0,.67-.67c1.42-7.6,10.24-9.34,10.24-2.78v43h31.77l-.35-45.72c0-14-13.84-15.83-18.06-15.6C422,78.87,418.18,97.23,418.18,98.85a.69.69,0,0,0,.67.67" transform="translate(0 0)"/><path class="cls-5" d="M447.12,232.11a14.55,14.55,0,1,1-26.5-12c3.44-7.66,11.84-10.33,19.26-7.24a14.28,14.28,0,0,1,7.24,19.26" transform="translate(0 0)"/><path class="cls-5" d="M495.59,97.31a2.1,2.1,0,0,0-1.94,2c-.63,11.84-4.18,77.45-6.06,100.67-1.1,13.51-.48,39.45-21.43,42.15-3.51.85-2.93,2.84-.07,2.54,20.51-2.15,49-7.42,54.49-54.52,2.88-24.59,4.17-87,4.37-97.63a.92.92,0,0,0-1.32-.85,52.1,52.1,0,0,1-12.5,4c-3.78.71-11.9,1.41-15.54,1.7" transform="translate(0 0)"/><path class="cls-5" d="M484,224.5c-2.77,8.35-8.54,17.6-23.73,18.49a1.07,1.07,0,0,0-.89,1.15,1,1,0,0,0,.89.86c.14,0,39.42,4,53.68-29.58,3.76-8.87-2.07-17.28-9.54-19.33C497.71,194.26,487,199,487,209.27a91.23,91.23,0,0,1-3,15.23" transform="translate(0 0)"/><path class="cls-5" d="M426.19,238.49c-7.21-4.3-8.32-13.19-5.11-19.27A14.43,14.43,0,0,1,440,212.87c2.84,1.28,7.39,3.81,8.5,11.86.82,6,1.76,18.15,9.41,18.38a1,1,0,0,1,.12,2c-.09.09-18.19,1.5-31.84-6.65" transform="translate(0 0)"/><path class="cls-5" d="M462.81,167.83c6.52,14.89,26.33,9.79,27.24-4.82,0-.17.58-2.51,2-2.72s2.52,1.05,2.22,3.36c-2.82,21.72-36.35,28.7-53.81,9.81-7.66-8.29-7.59-21.93-1.55-26.78,5.38-4.33,16.17-4.28,20.29,4.48,1.86,3.43,2.16,13.3,3.63,16.67" transform="translate(0 0)"/><path class="cls-5" d="M429.76,137.69c-.19,5.22,0,25.36,10.68,35.77,9.09,8.85,25.84,5.35,21.94-6.85-1.14-3.56-.85-11-.85-11V137.69Z" transform="translate(0 0)"/></g></g></g></svg>