<svg width="225" height="52" viewBox="0 0 225 52" fill="none" xmlns="http://www.w3.org/2000/svg">
<path d="M35.0422 14.9561H41.5592L45.9802 21.0541L50.3792 14.9561H56.7872L49.1932 25.4811L57.7802 37.3251H51.2622L45.9422 29.9871L40.6492 37.3231H34.2402L42.7302 25.5571L35.0422 14.9561Z" fill="white"/>
<path d="M66.2092 14.9561V17.4231C67.2232 16.4091 68.3192 15.6501 69.4992 15.1421C70.6782 14.6341 71.9382 14.3801 73.2822 14.3801C76.2012 14.3801 78.6822 15.4841 80.7242 17.6911C82.7662 19.8981 83.7872 22.7281 83.7872 26.1811C83.7872 29.5111 82.7312 32.2971 80.6202 34.5371C78.5092 36.7781 76.0082 37.8971 73.1162 37.8971C71.8272 37.8971 70.6282 37.6681 69.5182 37.2091C68.4082 36.7501 67.3042 36.0001 66.2082 34.9571V45.5041H60.6362V14.9561H66.2092ZM72.1092 19.5621C70.3412 19.5621 68.8752 20.1661 67.7102 21.3721C66.5442 22.5781 65.9622 24.1541 65.9622 26.1011C65.9622 28.0881 66.5442 29.6951 67.7102 30.9211C68.8752 32.1481 70.3422 32.7611 72.1092 32.7611C73.8222 32.7611 75.2652 32.1381 76.4372 30.8901C77.6092 29.6421 78.1952 28.0541 78.1952 26.1191C78.1952 24.2011 77.6192 22.6281 76.4682 21.4011C75.3172 20.1751 73.8642 19.5621 72.1092 19.5621Z" fill="white"/>
<path d="M87.1182 14.9561H91.9292V17.7721C92.4502 16.6631 93.1422 15.8191 94.0062 15.2441C94.8692 14.6681 95.8162 14.3811 96.8432 14.3811C97.5702 14.3811 98.3302 14.5731 99.1252 14.9571L97.3782 19.7881C96.7202 19.4591 96.1782 19.2951 95.7542 19.2951C94.8902 19.2951 94.1612 19.8301 93.5662 20.8991C92.9682 21.9671 92.6702 24.0651 92.6702 27.1901L92.6912 28.2801V37.3271H87.1212L87.1182 14.9561Z" fill="white"/>
<path d="M124.31 27.7651H106.279C106.54 29.3551 107.236 30.6191 108.366 31.5581C109.497 32.4961 110.939 32.9651 112.693 32.9651C114.791 32.9651 116.591 32.2341 118.099 30.7671L122.828 32.9861C121.649 34.6601 120.237 35.8961 118.593 36.6991C116.948 37.5001 114.995 37.9001 112.736 37.9001C109.226 37.9001 106.369 36.7951 104.163 34.5821C101.956 32.3671 100.851 29.5961 100.851 26.2661C100.851 22.8521 101.952 20.0201 104.152 17.7641C106.351 15.5101 109.109 14.3821 112.426 14.3821C115.948 14.3821 118.814 15.5091 121.021 17.7641C123.226 20.0201 124.332 22.9961 124.332 26.6981L124.31 27.7651ZM118.696 23.3451C118.325 22.0971 117.592 21.0821 116.503 20.3021C115.411 19.5211 114.146 19.1301 112.702 19.1301C111.138 19.1301 109.764 19.5681 108.584 20.4441C107.843 20.9931 107.155 21.9601 106.524 23.3441L118.696 23.3451Z" fill="white"/>
<path d="M142.545 18.081L139.069 21.556C137.658 20.159 136.377 19.458 135.225 19.458C134.593 19.458 134.1 19.593 133.746 19.858C133.39 20.126 133.212 20.459 133.212 20.856C133.212 21.157 133.324 21.434 133.551 21.688C133.777 21.942 134.335 22.289 135.228 22.727L137.285 23.755C139.451 24.824 140.935 25.914 141.746 27.024C142.555 28.135 142.959 29.438 142.959 30.932C142.959 32.919 142.23 34.578 140.771 35.907C139.31 37.235 137.355 37.899 134.902 37.899C131.638 37.899 129.035 36.628 127.089 34.077L130.543 30.315C131.201 31.083 131.973 31.704 132.856 32.178C133.742 32.651 134.526 32.887 135.21 32.887C135.949 32.887 136.546 32.707 136.998 32.352C137.449 31.997 137.677 31.582 137.677 31.12C137.677 30.256 136.862 29.413 135.231 28.59L133.34 27.646C129.721 25.822 127.912 23.541 127.912 20.799C127.912 19.031 128.594 17.521 129.957 16.267C131.32 15.013 133.064 14.386 135.189 14.386C136.642 14.386 138.007 14.704 139.291 15.341C140.569 15.976 141.653 16.89 142.545 18.081Z" fill="white"/>
<path d="M161.067 18.081L157.591 21.556C156.182 20.159 154.901 19.458 153.747 19.458C153.116 19.458 152.623 19.593 152.268 19.858C151.913 20.126 151.733 20.459 151.733 20.856C151.733 21.157 151.846 21.434 152.074 21.688C152.301 21.942 152.858 22.289 153.75 22.727L155.806 23.755C157.972 24.824 159.458 25.914 160.267 27.024C161.078 28.135 161.482 29.438 161.482 30.932C161.482 32.919 160.753 34.578 159.293 35.907C157.834 37.235 155.877 37.899 153.423 37.899C150.162 37.899 147.559 36.628 145.61 34.077L149.065 30.315C149.721 31.083 150.495 31.704 151.378 32.178C152.263 32.651 153.048 32.887 153.732 32.887C154.471 32.887 155.068 32.707 155.521 32.352C155.972 31.997 156.199 31.582 156.199 31.12C156.199 30.256 155.386 29.413 153.754 28.59L151.861 27.646C148.242 25.822 146.433 23.541 146.433 20.799C146.433 19.031 147.115 17.521 148.48 16.267C149.842 15.013 151.586 14.386 153.71 14.386C155.163 14.386 156.53 14.704 157.812 15.341C159.092 15.974 160.178 16.89 161.067 18.081Z" fill="white"/>
<path d="M168.09 5.74609C169.073 5.74609 169.918 6.10209 170.621 6.81509C171.325 7.52809 171.679 8.39209 171.679 9.40609C171.679 10.4061 171.329 11.2601 170.632 11.9661C169.935 12.6731 169.101 13.0251 168.131 13.0251C167.133 13.0251 166.282 12.6661 165.578 11.9451C164.874 11.2261 164.522 10.3531 164.522 9.32409C164.522 8.33709 164.87 7.49409 165.567 6.79509C166.265 6.09509 167.104 5.74609 168.09 5.74609ZM165.283 14.9561H170.895V37.3251H165.283V14.9561Z" fill="white"/>
<path d="M186.501 14.3801C188.61 14.3801 190.595 14.9081 192.452 15.9631C194.309 17.0191 195.759 18.4511 196.801 20.2611C197.842 22.0701 198.364 24.0231 198.364 26.1191C198.364 28.2291 197.84 30.2041 196.791 32.0391C195.743 33.8771 194.313 35.3111 192.505 36.3491C190.694 37.3811 188.701 37.9001 186.523 37.9001C183.316 37.9001 180.58 36.7581 178.31 34.4781C176.04 32.1951 174.909 29.4231 174.909 26.1631C174.909 22.6681 176.189 19.7561 178.753 17.4251C180.997 15.3961 183.581 14.3801 186.501 14.3801ZM186.593 19.6641C184.851 19.6641 183.398 20.2701 182.238 21.4831C181.08 22.6971 180.5 24.2491 180.5 26.1391C180.5 28.0861 181.072 29.6611 182.22 30.8681C183.368 32.0751 184.821 32.6781 186.575 32.6781C188.329 32.6781 189.795 32.0691 190.961 30.8481C192.128 29.6271 192.712 28.0591 192.712 26.1411C192.712 24.2231 192.141 22.6621 190.993 21.4631C189.844 20.2651 188.378 19.6641 186.593 19.6641Z" fill="white"/>
<path d="M202.948 14.9561H208.559V17.2481C209.83 16.1751 210.985 15.4291 212.018 15.0111C213.05 14.5911 214.11 14.3811 215.19 14.3811C217.408 14.3811 219.29 15.1551 220.836 16.7041C222.138 18.0201 222.787 19.9681 222.787 22.5431V37.3241H217.233V27.5301C217.233 24.8601 217.115 23.0881 216.877 22.2121C216.638 21.3361 216.222 20.6691 215.625 20.2101C215.028 19.7511 214.296 19.5221 213.421 19.5221C212.286 19.5221 211.314 19.9011 210.497 20.6621C209.684 21.4221 209.12 22.4741 208.806 23.8131C208.642 24.5121 208.562 26.0241 208.562 28.3521V37.3251H202.95L202.948 14.9561Z" fill="white"/>
<path d="M35.6652 30.3352C24.2322 41.2182 14.1262 42.3212 8.22123 38.7532L8.21923 38.7492L7.57823 39.5952L4.23923 36.9232L4.99923 35.8142C1.02023 30.4012 1.95923 21.3562 10.7902 13.9102C14.5732 10.4052 19.5452 9.31315 23.3962 9.13015C28.5672 8.88415 32.0072 12.2352 31.6602 16.6512C31.3022 21.2042 26.8742 26.8972 13.6852 31.5552L13.1982 32.1962C13.2332 32.2142 13.2652 32.2312 13.3012 32.2492C17.5702 34.2312 24.9222 33.0302 32.1712 25.4572L35.6652 30.3352ZM9.90123 28.6532L10.9692 27.0922C14.2842 26.5922 18.2112 24.4692 20.6232 22.0292C22.7492 19.8792 23.5962 17.7472 22.8782 16.6342C22.5132 15.6652 19.3012 14.7092 15.2692 17.8982C10.2392 21.6852 8.88223 25.7022 9.90123 28.6532Z" fill="white"/>
<path d="M4.42619 37.5012L6.98319 39.5732C7.19819 39.7472 7.23119 40.0632 7.05719 40.2782L5.66219 42.0012C5.48819 42.2162 5.17119 42.2492 4.95619 42.0752L2.39919 40.0052C2.18419 39.8312 2.15119 39.5152 2.32419 39.3002L3.71919 37.5772C3.89419 37.3622 4.21219 37.3272 4.42619 37.5012Z" fill="white"/>
</svg>
